<svg version="1.1" viewBox="0.0 0.0 720.0 540.0" fill="none" stroke="none" stroke-linecap="square" stroke-miterlimit="10" xmlns:xlink="http://www.w3.org/1999/xlink" xmlns="http://www.w3.org/2000/svg"><clipPath id="p.0"><path d="m0 0l720.0 0l0 540.0l-720.0 0l0 -540.0z" clip-rule="nonzero"/></clipPath><g clip-path="url(#p.0)"><path fill="#000000" fill-opacity="0.0" d="m0 0l720.0 0l0 540.0l-720.0 0z" fill-rule="evenodd"/><path fill="#ea9999" d="m106.08662 117.950134l39.999992 0l0 32.0l-39.999992 0z" fill-rule="evenodd"/><path stroke="#000000" stroke-width="1.0" stroke-linejoin="round" stroke-linecap="butt" d="m106.08662 117.950134l39.999992 0l0 32.0l-39.999992 0z" fill-rule="evenodd"/><path fill="#ea9999" d="m50.086613 173.95013l40.000004 0l0 32.0l-40.000004 0z" fill-rule="evenodd"/><path stroke="#000000" stroke-width="1.0" stroke-linejoin="round" stroke-linecap="butt" d="m50.086613 173.95013l40.000004 0l0 32.0l-40.000004 0z" fill-rule="evenodd"/><path fill="#ea9999" d="m266.0866 173.95013l40.0 0l0 32.0l-40.0 0z" fill-rule="evenodd"/><path stroke="#000000" stroke-width="1.0" stroke-linejoin="round" stroke-linecap="butt" d="m266.0866 173.95013l40.0 0l0 32.0l-40.0 0z" fill-rule="evenodd"/><path fill="#ea9999" d="m154.08661 173.95013l40.0 0l0 32.0l-40.0 0z" fill-rule="evenodd"/><path stroke="#000000" stroke-width="1.0" stroke-linejoin="round" stroke-linecap="butt" d="m154.08661 173.95013l40.0 0l0 32.0l-40.0 0z" fill-rule="evenodd"/><path fill="#ea9999" d="m378.0866 173.95013l40.0 0l0 32.0l-40.0 0z" fill-rule="evenodd"/><path stroke="#000000" stroke-width="1.0" stroke-linejoin="round" stroke-linecap="butt" d="m378.0866 173.95013l40.0 0l0 32.0l-40.0 0z" fill-rule="evenodd"/><path fill="#ea9999" d="m322.0866 117.950134l40.0 0l0 32.0l-40.0 0z" fill-rule="evenodd"/><path stroke="#000000" stroke-width="1.0" stroke-linejoin="round" stroke-linecap="butt" d="m322.0866 117.950134l40.0 0l0 32.0l-40.0 0z" fill-rule="evenodd"/><path fill="#ea9999" d="m18.086615 229.95013l40.0 0l0 32.0l-40.0 0z" fill-rule="evenodd"/><path stroke="#000000" stroke-width="1.0" stroke-linejoin="round" stroke-linecap="butt" d="m18.086615 229.95013l40.0 0l0 32.0l-40.0 0z" fill-rule="evenodd"/><path fill="#cfe2f3" d="m74.08662 229.95013l40.0 0l0 32.0l-40.0 0z" fill-rule="evenodd"/><path stroke="#000000" stroke-width="1.0" stroke-linejoin="round" stroke-linecap="butt" d="m74.08662 229.95013l40.0 0l0 32.0l-40.0 0z" fill-rule="evenodd"/><path fill="#cfe2f3" d="m130.08661 229.95013l40.0 0l0 32.0l-40.0 0z" fill-rule="evenodd"/><path stroke="#000000" stroke-width="1.0" stroke-linejoin="round" stroke-linecap="butt" d="m130.08661 229.95013l40.0 0l0 32.0l-40.0 0z" fill-rule="evenodd"/><path fill="#ea9999" d="m186.08661 229.95013l40.0 0l0 32.0l-40.0 0z" fill-rule="evenodd"/><path stroke="#000000" stroke-width="1.0" stroke-linejoin="round" stroke-linecap="butt" d="m186.08661 229.95013l40.0 0l0 32.0l-40.0 0z" fill-rule="evenodd"/><path fill="#cfe2f3" d="m242.08661 229.95013l40.0 0l0 32.0l-40.0 0z" fill-rule="evenodd"/><path stroke="#000000" stroke-width="1.0" stroke-linejoin="round" stroke-linecap="butt" d="m242.08661 229.95013l40.0 0l0 32.0l-40.0 0z" fill-rule="evenodd"/><path fill="#cfe2f3" d="m298.0866 229.95013l40.0 0l0 32.0l-40.0 0z" fill-rule="evenodd"/><path stroke="#000000" stroke-width="1.0" stroke-linejoin="round" stroke-linecap="butt" d="m298.0866 229.95013l40.0 0l0 32.0l-40.0 0z" fill-rule="evenodd"/><path fill="#cfe2f3" d="m354.0866 229.95013l40.0 0l0 32.0l-40.0 0z" fill-rule="evenodd"/><path stroke="#000000" stroke-width="1.0" stroke-linejoin="round" stroke-linecap="butt" d="m354.0866 229.95013l40.0 0l0 32.0l-40.0 0z" fill-rule="evenodd"/><path fill="#ea9999" d="m410.0866 229.95013l40.0 0l0 32.0l-40.0 0z" fill-rule="evenodd"/><path stroke="#000000" stroke-width="1.0" stroke-linejoin="round" stroke-linecap="butt" d="m410.0866 229.95013l40.0 0l0 32.0l-40.0 0z" fill-rule="evenodd"/><path fill="#000000" fill-opacity="0.0" d="m126.08662 149.95013l-56.0 24.0" fill-rule="evenodd"/><path stroke="#000000" stroke-width="1.0" stroke-linejoin="round" stroke-linecap="butt" d="m126.08662 149.95013l-56.0 24.0" fill-rule="evenodd"/><path fill="#000000" fill-opacity="0.0" d="m126.08662 149.95013l47.999992 24.0" fill-rule="evenodd"/><path stroke="#000000" stroke-width="1.0" stroke-linejoin="round" stroke-linecap="butt" d="m126.08662 149.95013l47.999992 24.0" fill-rule="evenodd"/><path fill="#000000" fill-opacity="0.0" d="m342.0866 149.95013l-56.0 24.0" fill-rule="evenodd"/><path stroke="#000000" stroke-width="1.0" stroke-linejoin="round" stroke-linecap="butt" d="m342.0866 149.95013l-56.0 24.0" fill-rule="evenodd"/><path fill="#000000" fill-opacity="0.0" d="m342.0866 149.95013l56.0 24.0" fill-rule="evenodd"/><path stroke="#000000" stroke-width="1.0" stroke-linejoin="round" stroke-linecap="butt" d="m342.0866 149.95013l56.0 24.0" fill-rule="evenodd"/><path fill="#000000" fill-opacity="0.0" d="m70.08662 205.95013l-32.000004 24.0" fill-rule="evenodd"/><path stroke="#000000" stroke-width="1.0" stroke-linejoin="round" stroke-linecap="butt" d="m70.08662 205.95013l-32.000004 24.0" fill-rule="evenodd"/><path fill="#000000" fill-opacity="0.0" d="m70.08662 205.95013l24.0 24.0" fill-rule="evenodd"/><path stroke="#000000" stroke-width="1.0" stroke-linejoin="round" stroke-linecap="butt" d="m70.08662 205.95013l24.0 24.0" fill-rule="evenodd"/><path fill="#000000" fill-opacity="0.0" d="m174.08661 205.95013l-24.0 24.0" fill-rule="evenodd"/><path stroke="#000000" stroke-width="1.0" stroke-linejoin="round" stroke-linecap="butt" d="m174.08661 205.95013l-24.0 24.0" fill-rule="evenodd"/><path fill="#000000" fill-opacity="0.0" d="m174.08661 205.95013l32.0 24.0" fill-rule="evenodd"/><path stroke="#000000" stroke-width="1.0" stroke-linejoin="round" stroke-linecap="butt" d="m174.08661 205.95013l32.0 24.0" fill-rule="evenodd"/><path fill="#000000" fill-opacity="0.0" d="m286.0866 205.95013l-24.0 24.0" fill-rule="evenodd"/><path stroke="#000000" stroke-width="1.0" stroke-linejoin="round" stroke-linecap="butt" d="m286.0866 205.95013l-24.0 24.0" fill-rule="evenodd"/><path fill="#000000" fill-opacity="0.0" d="m286.0866 205.95013l32.0 24.0" fill-rule="evenodd"/><path stroke="#000000" stroke-width="1.0" stroke-linejoin="round" stroke-linecap="butt" d="m286.0866 205.95013l32.0 24.0" fill-rule="evenodd"/><path fill="#000000" fill-opacity="0.0" d="m398.0866 205.95013l-24.0 24.0" fill-rule="evenodd"/><path stroke="#000000" stroke-width="1.0" stroke-linejoin="round" stroke-linecap="butt" d="m398.0866 205.95013l-24.0 24.0" fill-rule="evenodd"/><path fill="#000000" fill-opacity="0.0" d="m398.0866 205.95013l32.0 24.0" fill-rule="evenodd"/><path stroke="#000000" stroke-width="1.0" stroke-linejoin="round" stroke-linecap="butt" d="m398.0866 205.95013l32.0 24.0" fill-rule="evenodd"/><path fill="#000000" fill-opacity="0.0" d="m13.661417 287.93176l688.5669 0" fill-rule="evenodd"/><path stroke="#000000" stroke-width="1.0" stroke-linejoin="round" stroke-linecap="butt" d="m17.451416 287.93176l678.7769 0" fill-rule="evenodd"/><path stroke="#000000" stroke-width="1.0" stroke-linecap="butt" d="m14.161417 287.93176c0 -0.9085083 0.73649216 -1.644989 1.6450005 -1.644989c0.9085083 0 1.6450005 0.7364807 1.6450005 1.644989c0 0.9085083 -0.73649216 1.644989 -1.6450005 1.644989c-0.9085083 0 -1.6450005 -0.7364807 -1.6450005 -1.644989z" fill-rule="nonzero"/><path stroke="#000000" stroke-width="1.0" stroke-linecap="butt" d="m696.22833 289.5835l4.538086 -1.6517334l-4.538086 -1.6517334z" fill-rule="evenodd"/><path fill="#000000" fill-opacity="0.0" d="m664.3333 296.0l64.0 0l0 32.0l-64.0 0z" fill-rule="evenodd"/><path fill="#000000" d="m678.17706 322.91998l0 -11.78125l-4.40625 0l0 -1.578125l10.578125 0l0 1.578125l-4.40625 0l0 11.78125l-1.765625 0zm7.786621 -11.46875l0 -1.890625l1.640625 0l0 1.890625l-1.640625 0zm0 11.46875l0 -9.671875l1.640625 0l0 9.671875l-1.640625 0zm4.1448364 0l0 -9.671875l1.46875 0l0 1.359375q0.453125 -0.71875 1.203125 -1.140625q0.765625 -0.4375 1.71875 -0.4375q1.078125 0 1.765625 0.453125q0.6875 0.4375 0.96875 1.234375q1.15625 -1.6875 2.984375 -1.6875q1.453125 0 2.21875 0.796875q0.78125 0.796875 0.78125 2.453125l0 6.640625l-1.640625 0l0 -6.09375q0 -0.984375 -0.15625 -1.40625q-0.15625 -0.4375 -0.578125 -0.703125q-0.421875 -0.265625 -0.984375 -0.265625q-1.015625 0 -1.6875 0.6875q-0.671875 0.671875 -0.671875 2.15625l0 5.625l-1.640625 0l0 -6.28125q0 -1.09375 -0.40625 -1.640625q-0.40625 -0.546875 -1.3125 -0.546875q-0.6875 0 -1.28125 0.359375q-0.59375 0.359375 -0.859375 1.0625q-0.25 0.703125 -0.25 2.03125l0 5.015625l-1.640625 0zm22.165771 -3.109375l1.6875 0.203125q-0.40625 1.484375 -1.484375 2.3125q-1.078125 0.8125 -2.765625 0.8125q-2.125 0 -3.375 -1.296875q-1.234375 -1.3125 -1.234375 -3.671875q0 -2.453125 1.25 -3.796875q1.265625 -1.34375 3.265625 -1.34375q1.9375 0 3.15625 1.328125q1.234375 1.3125 1.234375 3.703125q0 0.15625 0 0.4375l-7.21875 0q0.09375 1.59375 0.90625 2.453125q0.8125 0.84375 2.015625 0.84375q0.90625 0 1.546875 -0.46875q0.640625 -0.484375 1.015625 -1.515625zm-5.390625 -2.65625l5.40625 0q-0.109375 -1.21875 -0.625 -1.828125q-0.78125 -0.953125 -2.03125 -0.953125q-1.125 0 -1.90625 0.765625q-0.765625 0.75 -0.84375 2.015625z" fill-rule="nonzero"/><path fill="#000000" fill-opacity="0.0" d="m40.0 280.0l0 16.0" fill-rule="evenodd"/><path stroke="#000000" stroke-width="1.0" stroke-linejoin="round" stroke-linecap="butt" d="m40.0 280.0l0 16.0" fill-rule="evenodd"/><path fill="#000000" fill-opacity="0.0" d="m224.0 280.0l0 16.0" fill-rule="evenodd"/><path stroke="#000000" stroke-width="1.0" stroke-linejoin="round" stroke-linecap="butt" d="m224.0 280.0l0 16.0" fill-rule="evenodd"/><path fill="#000000" fill-opacity="0.0" d="m608.0 280.0l0 16.0" fill-rule="evenodd"/><path stroke="#000000" stroke-width="1.0" stroke-linejoin="round" stroke-linecap="butt" d="m608.0 280.0l0 16.0" fill-rule="evenodd"/><path fill="#000000" fill-opacity="0.0" d="m424.0 280.0l0 16.0" fill-rule="evenodd"/><path stroke="#000000" stroke-width="1.0" stroke-linejoin="round" stroke-linecap="butt" d="m424.0 280.0l0 16.0" fill-rule="evenodd"/><path fill="#000000" fill-opacity="0.0" d="m42.086613 280.0l80.0 0l0 32.0l-80.0 0z" fill-rule="evenodd"/><path fill="#000000" d="m51.664738 304.02936l1.625 -0.25q0.125 0.96875 0.75 1.5q0.625 0.515625 1.75 0.515625q1.125 0 1.671875 -0.453125q0.546875 -0.46875 0.546875 -1.09375q0 -0.546875 -0.484375 -0.875q-0.328125 -0.21875 -1.671875 -0.546875q-1.8125 -0.46875 -2.515625 -0.796875q-0.6875 -0.328125 -1.046875 -0.90625q-0.359375 -0.59375 -0.359375 -1.3125q0 -0.640625 0.296875 -1.1875q0.296875 -0.5625 0.8125 -0.921875q0.375 -0.28125 1.03125 -0.46875q0.671875 -0.203125 1.421875 -0.203125q1.140625 0 2.0 0.328125q0.859375 0.328125 1.265625 0.890625q0.421875 0.5625 0.578125 1.5l-1.609375 0.21875q-0.109375 -0.75 -0.640625 -1.171875q-0.515625 -0.421875 -1.46875 -0.421875q-1.140625 0 -1.625 0.375q-0.46875 0.375 -0.46875 0.875q0 0.3125 0.1875 0.578125q0.203125 0.265625 0.640625 0.4375q0.234375 0.09375 1.4375 0.421875q1.75 0.453125 2.4375 0.75q0.6875 0.296875 1.078125 0.859375q0.390625 0.5625 0.390625 1.40625q0 0.828125 -0.484375 1.546875q-0.46875 0.71875 -1.375 1.125q-0.90625 0.390625 -2.046875 0.390625q-1.875 0 -2.875 -0.78125q-0.984375 -0.78125 -1.25 -2.328125zm13.562504 1.421875l0.234375 1.453125q-0.6875 0.140625 -1.234375 0.140625q-0.8906288 0 -1.3906288 -0.28125q-0.484375 -0.28125 -0.6875 -0.734375q-0.203125 -0.46875 -0.203125 -1.9375l0 -5.578125l-1.203125 0l0 -1.265625l1.203125 0l0 -2.390625l1.625 -0.984375l0 3.375l1.6562538 0l0 1.265625l-1.6562538 0l0 5.671875q0 0.6875 0.078125 0.890625q0.09375 0.203125 0.28125 0.328125q0.20312881 0.109375 0.5781288 0.109375q0.265625 0 0.71875 -0.0625zm8.230179 -1.640625l1.6875 0.203125q-0.40625 1.484375 -1.484375 2.3125q-1.078125 0.8125 -2.765625 0.8125q-2.125 0 -3.375 -1.296875q-1.234375 -1.3125 -1.234375 -3.671875q0 -2.453125 1.25 -3.796875q1.265625 -1.34375 3.265625 -1.34375q1.9375 0 3.15625 1.328125q1.234375 1.3125 1.234375 3.703125q0 0.15625 0 0.4375l-7.21875 0q0.09375 1.59375 0.90625 2.453125q0.8125 0.84375 2.015625 0.84375q0.90625 0 1.546875 -0.46875q0.640625 -0.484375 1.015625 -1.515625zm-5.390625 -2.65625l5.40625 0q-0.109375 -1.21875 -0.625 -1.828125q-0.78125 -0.953125 -2.03125 -0.953125q-1.125 0 -1.90625 0.765625q-0.765625 0.75 -0.84375 2.015625zm9.141342 9.46875l0 -13.375l1.484375 0l0 1.25q0.53125 -0.734375 1.1875 -1.09375q0.671875 -0.375 1.625 -0.375q1.234375 0 2.171875 0.640625q0.953125 0.625 1.4375 1.796875q0.484375 1.15625 0.484375 2.546875q0 1.484375 -0.53125 2.671875q-0.53125 1.1875 -1.546875 1.828125q-1.015625 0.625 -2.140625 0.625q-0.8125 0 -1.46875 -0.34375q-0.65625 -0.34375 -1.0625 -0.875l0 4.703125l-1.640625 0zm1.484375 -8.484375q0 1.859375 0.75 2.765625q0.765625 0.890625 1.828125 0.890625q1.09375 0 1.875 -0.921875q0.78125 -0.9375 0.78125 -2.875q0 -1.84375 -0.765625 -2.765625q-0.75 -0.921875 -1.8125 -0.921875q-1.046875 0 -1.859375 0.984375q-0.796875 0.96875 -0.796875 2.84375z" fill-rule="nonzero"/><path fill="#ea9999" d="m490.0866 173.95013l40.0 0l0 32.0l-40.0 0z" fill-rule="evenodd"/><path stroke="#000000" stroke-width="1.0" stroke-linejoin="round" stroke-linecap="butt" d="m490.0866 173.95013l40.0 0l0 32.0l-40.0 0z" fill-rule="evenodd"/><path fill="#ea9999" d="m602.0866 173.95013l40.0 0l0 32.0l-40.0 0z" fill-rule="evenodd"/><path stroke="#000000" stroke-width="1.0" stroke-linejoin="round" stroke-linecap="butt" d="m602.0866 173.95013l40.0 0l0 32.0l-40.0 0z" fill-rule="evenodd"/><path fill="#ea9999" d="m546.0866 117.950134l40.0 0l0 32.0l-40.0 0z" fill-rule="evenodd"/><path stroke="#000000" stroke-width="1.0" stroke-linejoin="round" stroke-linecap="butt" d="m546.0866 117.950134l40.0 0l0 32.0l-40.0 0z" fill-rule="evenodd"/><path fill="#cfe2f3" d="m466.0866 229.95013l40.0 0l0 32.0l-40.0 0z" fill-rule="evenodd"/><path stroke="#000000" stroke-width="1.0" stroke-linejoin="round" stroke-linecap="butt" d="m466.0866 229.95013l40.0 0l0 32.0l-40.0 0z" fill-rule="evenodd"/><path fill="#cfe2f3" d="m522.0866 229.95013l40.0 0l0 32.0l-40.0 0z" fill-rule="evenodd"/><path stroke="#000000" stroke-width="1.0" stroke-linejoin="round" stroke-linecap="butt" d="m522.0866 229.95013l40.0 0l0 32.0l-40.0 0z" fill-rule="evenodd"/><path fill="#ea9999" d="m578.0866 229.95013l40.0 0l0 32.0l-40.0 0z" fill-rule="evenodd"/><path stroke="#000000" stroke-width="1.0" stroke-linejoin="round" stroke-linecap="butt" d="m578.0866 229.95013l40.0 0l0 32.0l-40.0 0z" fill-rule="evenodd"/><path fill="#cfe2f3" d="m634.0866 229.95013l40.0 0l0 32.0l-40.0 0z" fill-rule="evenodd"/><path stroke="#000000" stroke-width="1.0" stroke-linejoin="round" stroke-linecap="butt" d="m634.0866 229.95013l40.0 0l0 32.0l-40.0 0z" fill-rule="evenodd"/><path fill="#000000" fill-opacity="0.0" d="m566.0866 149.95013l-56.0 24.0" fill-rule="evenodd"/><path stroke="#000000" stroke-width="1.0" stroke-linejoin="round" stroke-linecap="butt" d="m566.0866 149.95013l-56.0 24.0" fill-rule="evenodd"/><path fill="#000000" fill-opacity="0.0" d="m566.0866 149.95013l56.0 24.0" fill-rule="evenodd"/><path stroke="#000000" stroke-width="1.0" stroke-linejoin="round" stroke-linecap="butt" d="m566.0866 149.95013l56.0 24.0" fill-rule="evenodd"/><path fill="#000000" fill-opacity="0.0" d="m510.0866 205.95013l-24.0 24.0" fill-rule="evenodd"/><path stroke="#000000" stroke-width="1.0" stroke-linejoin="round" stroke-linecap="butt" d="m510.0866 205.95013l-24.0 24.0" fill-rule="evenodd"/><path fill="#000000" fill-opacity="0.0" d="m510.0866 205.95013l32.0 24.0" fill-rule="evenodd"/><path stroke="#000000" stroke-width="1.0" stroke-linejoin="round" stroke-linecap="butt" d="m510.0866 205.95013l32.0 24.0" fill-rule="evenodd"/><path fill="#000000" fill-opacity="0.0" d="m622.0866 205.95013l-24.0 24.0" fill-rule="evenodd"/><path stroke="#000000" stroke-width="1.0" stroke-linejoin="round" stroke-linecap="butt" d="m622.0866 205.95013l-24.0 24.0" fill-rule="evenodd"/><path fill="#000000" fill-opacity="0.0" d="m622.0866 205.95013l32.0 24.0" fill-rule="evenodd"/><path stroke="#000000" stroke-width="1.0" stroke-linejoin="round" stroke-linecap="butt" d="m622.0866 205.95013l32.0 24.0" fill-rule="evenodd"/></g></svg>